<?xml version="1.0" encoding="UTF-8" standalone="no"?>
<!-- Created with Inkscape (http://www.inkscape.org/) -->

<svg
   width="67.73333mm"
   height="67.733337mm"
   viewBox="0 0 67.733329 67.733337"
   version="1.1"
   id="svg1"
   xml:space="preserve"
   xmlns="http://www.w3.org/2000/svg"
   xmlns:svg="http://www.w3.org/2000/svg"><defs
     id="defs1"><linearGradient
       id="swatch21"><stop
         style="stop-color:#ffffff;stop-opacity:1;"
         offset="0"
         id="stop21" /></linearGradient><linearGradient
       id="swatch20"><stop
         style="stop-color:#ffffff;stop-opacity:1;"
         offset="0"
         id="stop20" /></linearGradient><linearGradient
       id="swatch16"><stop
         style="stop-color:#7187de;stop-opacity:1;"
         offset="0"
         id="stop16" /></linearGradient><linearGradient
       id="swatch72"><stop
         style="stop-color:#ffffff;stop-opacity:1;"
         offset="0"
         id="stop72" /></linearGradient><linearGradient
       id="swatch70"><stop
         style="stop-color:#ffffff;stop-opacity:1;"
         offset="0"
         id="stop70" /></linearGradient><linearGradient
       id="swatch68"><stop
         style="stop-color:#ffffff;stop-opacity:1;"
         offset="0"
         id="stop68" /></linearGradient><linearGradient
       id="swatch37"><stop
         style="stop-color:#ffffff;stop-opacity:1;"
         offset="0"
         id="stop37" /></linearGradient><linearGradient
       id="swatch31"><stop
         style="stop-color:#ffffff;stop-opacity:1;"
         offset="0"
         id="stop31" /></linearGradient><linearGradient
       id="swatch17"><stop
         style="stop-color:#26394f;stop-opacity:1;"
         offset="0"
         id="stop17" /></linearGradient></defs><g
     id="layer1"
     transform="translate(457.19996,-722.49412)"><g
       id="use29"
       transform="matrix(0.99124125,0,0,0.99124125,-476.65911,705.59547)"
       style="fill:url(#swatch17);stroke:url(#swatch17);stroke-width:0;stroke-dasharray:none"><g
         id="g51"
         transform="translate(-2.5135371,39.555211)"
         style="stroke-width:0;stroke-dasharray:none"><path
           id="path44"
           style="fill-opacity:1;stroke-width:0;stroke-dasharray:none;paint-order:markers stroke fill"
           d="m 27.391829,-14.767693 0.193067,1.430161 c 0.03046,0.22561 0.238039,0.433191 0.463647,0.463649 l 1.430161,0.193068 c 0.225609,0.03046 0.225609,0.07984 0,0.110291 l -1.430162,0.193072 c -0.225607,0.03046 -0.433189,0.238038 -0.463646,0.463644 l -0.193067,1.430161 c -0.03046,0.22561 -0.07984,0.22561 -0.110293,0 l -0.193068,-1.430161 c -0.03046,-0.225606 -0.238039,-0.433191 -0.463647,-0.463644 l -1.430162,-0.193072 c -0.225609,-0.03046 -0.225609,-0.07984 0,-0.110291 l 1.430162,-0.193068 c 0.225608,-0.03046 0.43319,-0.238039 0.463647,-0.463649 l 0.193068,-1.430161 c 0.03046,-0.225606 0.07984,-0.225606 0.110293,0 z" /><path
           id="path45"
           style="fill-opacity:1;stroke-width:0;stroke-dasharray:none;paint-order:markers stroke fill"
           d="m 84.968425,33.819802 0.29708,2.20076 c 0.0469,0.34716 0.3663,0.6666 0.71348,0.71347 l 2.20077,0.2971 c 0.34717,0.0469 0.34717,0.12286 0,0.16971 l -2.20077,0.29712 c -0.34718,0.0469 -0.6666,0.36628 -0.71348,0.71346 l -0.29708,2.20077 c -0.0469,0.34717 -0.12286,0.34717 -0.16973,0 l -0.2971,-2.20077 c -0.0469,-0.34718 -0.36631,-0.6666 -0.71347,-0.71346 l -2.20076,-0.29712 c -0.34717,-0.0469 -0.34717,-0.12285 0,-0.16971 l 2.20076,-0.2971 c 0.34716,-0.0469 0.66661,-0.36631 0.71347,-0.71347 l 0.2971,-2.20076 c 0.0469,-0.34717 0.12286,-0.34717 0.16973,0 z" /><circle
           style="fill-opacity:1;stroke-width:0;stroke-dasharray:none;paint-order:markers stroke fill"
           id="circle45"
           cx="82.599815"
           cy="-16.91506"
           r="1.4481436" /><circle
           style="fill-opacity:1;stroke-width:0;stroke-dasharray:none;paint-order:markers stroke fill"
           id="circle46"
           cx="23.861118"
           cy="29.521189"
           r="1.122532" /><circle
           style="fill-opacity:1;stroke-width:0;stroke-dasharray:none;paint-order:markers stroke fill"
           id="circle47"
           cx="32.900707"
           cy="40.93417"
           r="0.7417708" /><circle
           style="fill-opacity:1;stroke-width:0;stroke-dasharray:none;paint-order:markers stroke fill"
           id="circle48"
           cx="89.423157"
           cy="-5.8131618"
           r="0.324" /><circle
           style="fill-opacity:1;stroke-width:0;stroke-dasharray:none;paint-order:markers stroke fill"
           id="circle49"
           cx="85.868988"
           cy="-8.3089886"
           r="0.47400001" /><circle
           style="fill-opacity:1;stroke-width:0;stroke-dasharray:none;paint-order:markers stroke fill"
           id="circle50"
           cx="90.052383"
           cy="26.169199"
           r="0.42406249" /><circle
           style="fill-opacity:1;stroke-width:0;stroke-dasharray:none;paint-order:markers stroke fill"
           id="circle51"
           cx="23.904163"
           cy="37.494602"
           r="0.42250001" /></g><g
         id="g73"
         transform="translate(-53.77582,-57.7309)"
         style="stroke-width:0;stroke-dasharray:none"><circle
           style="fill-opacity:1;stroke:none;stroke-width:1.79996;stroke-linejoin:round;stroke-dasharray:none;paint-order:markers stroke fill"
           id="circle52"
           cx="107.51353"
           cy="108.94479"
           r="3" /><circle
           style="fill:none;fill-opacity:1;stroke-width:3;stroke-linejoin:round;stroke-dasharray:none;stroke-opacity:1;paint-order:normal"
           id="circle53"
           cx="107.51353"
           cy="108.94479"
           r="9.0345211" /><g
           id="g56"
           style="fill-opacity:1;stroke-opacity:1"><path
             id="path53"
             style="fill:none;fill-opacity:1;stroke-width:2.64583;stroke-linecap:round;stroke-linejoin:round;stroke-dasharray:none;stroke-opacity:1"
             d="m 113.37832,93.522272 a 16.5,16.5 0 0 1 9.5579,9.558178" /><path
             id="path54"
             style="fill:none;fill-opacity:1;stroke-width:2.64583;stroke-linecap:round;stroke-linejoin:round;stroke-dasharray:none;stroke-opacity:1"
             d="m 92.090834,103.08045 a 16.5,16.5 0 0 1 9.558146,-9.558273" /><path
             id="path55"
             style="fill:none;fill-opacity:1;stroke-width:2.64583;stroke-linecap:round;stroke-linejoin:round;stroke-dasharray:none;stroke-opacity:1"
             d="m 101.64898,124.36741 a 16.5,16.5 0 0 1 -9.557975,-9.55783" /><path
             id="path56"
             style="fill:none;fill-opacity:1;stroke-width:2.64583;stroke-linecap:round;stroke-linejoin:round;stroke-dasharray:none;stroke-opacity:1"
             d="m 122.93605,114.80958 a 16.5,16.5 0 0 1 -9.55773,9.55773" /></g><g
           id="g60"
           style="fill-opacity:1;stroke-opacity:1"><path
             id="path57"
             style="fill:none;fill-opacity:1;stroke-width:2.38125;stroke-linecap:round;stroke-linejoin:round;stroke-dasharray:none;stroke-opacity:1"
             d="m 113.36688,88.256916 a 21.5,21.5 0 0 1 14.83454,14.834564" /><path
             id="path58"
             style="fill:none;fill-opacity:1;stroke-width:2.38125;stroke-linecap:round;stroke-linejoin:round;stroke-dasharray:none;stroke-opacity:1"
             d="M 86.825641,103.09147 A 21.5,21.5 0 0 1 101.66022,88.256905" /><path
             id="path59"
             style="fill:none;fill-opacity:1;stroke-width:2.38125;stroke-linecap:round;stroke-linejoin:round;stroke-dasharray:none;stroke-opacity:1"
             d="M 101.66021,129.63268 A 21.5,21.5 0 0 1 86.825649,114.79814" /><path
             id="path60"
             style="fill:none;fill-opacity:1;stroke-width:2.38125;stroke-linecap:round;stroke-linejoin:round;stroke-dasharray:none;stroke-opacity:1"
             d="m 128.20141,114.79814 a 21.5,21.5 0 0 1 -14.83453,14.83453" /></g><g
           id="g64"
           style="fill-opacity:1;stroke-width:1.5875;stroke-dasharray:none;stroke-opacity:1"><path
             id="path61"
             style="fill:none;fill-opacity:1;stroke-width:2.11667;stroke-linecap:round;stroke-linejoin:round;stroke-dasharray:none;stroke-opacity:1"
             d="m 113.37792,83.101828 a 26.499998,26.499998 0 0 1 19.97861,19.978732" /><path
             id="path62"
             style="fill:none;fill-opacity:1;stroke-width:2.11667;stroke-linecap:round;stroke-linejoin:round;stroke-dasharray:none;stroke-opacity:1"
             d="M 81.670527,103.08056 A 26.499998,26.499998 0 0 1 101.64936,83.101779" /><path
             id="path63"
             style="fill:none;fill-opacity:1;stroke-width:2.11667;stroke-linecap:round;stroke-linejoin:round;stroke-dasharray:none;stroke-opacity:1"
             d="M 101.64936,134.78781 A 26.499998,26.499998 0 0 1 81.670638,114.80952" /><path
             id="path64"
             style="fill:none;fill-opacity:1;stroke-width:2.11667;stroke-linecap:round;stroke-linejoin:round;stroke-dasharray:none;stroke-opacity:1"
             d="m 133.35927,114.79696 a 26.499998,26.499998 0 0 1 -19.99412,19.99369" /></g><g
           id="g68"
           style="fill-opacity:1;stroke-width:1.05833;stroke-dasharray:none;stroke-opacity:1"><path
             id="path65"
             style="fill:none;fill-opacity:1;stroke-width:1.85208;stroke-linecap:round;stroke-linejoin:round;stroke-dasharray:none;stroke-opacity:1"
             d="m 113.37777,77.995469 a 31.5,31.5 0 0 1 25.08515,25.085421" /><path
             id="path66"
             style="fill:none;fill-opacity:1;stroke-width:1.85208;stroke-linecap:round;stroke-linejoin:round;stroke-dasharray:none;stroke-opacity:1"
             d="M 76.564124,103.08097 A 31.5,31.5 0 0 1 101.64963,77.995404" /><path
             id="path67"
             style="fill:none;fill-opacity:1;stroke-width:1.85208;stroke-linecap:round;stroke-linejoin:round;stroke-dasharray:none;stroke-opacity:1"
             d="M 101.64963,139.89418 A 31.5,31.5 0 0 1 76.564218,114.80911" /><path
             id="path68"
             style="fill:none;fill-opacity:1;stroke-width:1.85208;stroke-linecap:round;stroke-linejoin:round;stroke-dasharray:none;stroke-opacity:1"
             d="m 138.46283,114.80918 a 31.5,31.5 0 0 1 -25.08506,25.08493" /></g><g
           id="g72"
           style="display:inline;fill-opacity:1;stroke-opacity:1"><path
             style="fill:none;fill-opacity:1;stroke-width:3;stroke-linecap:round;stroke-linejoin:round;stroke-dasharray:none;stroke-opacity:1;paint-order:markers stroke fill"
             d="m 107.51353,124.36731 1e-5,14.0268"
             id="path69" /><path
             style="fill:none;fill-opacity:1;stroke-width:3;stroke-linecap:round;stroke-linejoin:round;stroke-dasharray:none;stroke-opacity:1;paint-order:markers stroke fill"
             d="m 136.96285,108.94478 -14.0268,1e-5"
             id="path70" /><path
             style="fill:none;fill-opacity:1;stroke-width:3;stroke-linecap:round;stroke-linejoin:round;stroke-dasharray:none;stroke-opacity:1;paint-order:markers stroke fill"
             d="m 107.51353,79.49546 1e-5,14.026809"
             id="path71" /><path
             style="fill:none;fill-opacity:1;stroke-width:3;stroke-linecap:round;stroke-linejoin:round;stroke-dasharray:none;stroke-opacity:1;paint-order:markers stroke fill"
             d="m 92.091003,108.94479 -14.026787,1e-5"
             id="path72" /></g></g></g></g></svg>
