<?xml version="1.0" encoding="UTF-8" standalone="no"?>
<!-- Created with Inkscape (http://www.inkscape.org/) -->

<svg
   width="105.83333mm"
   height="26.458334mm"
   viewBox="0 0 105.83333 26.458334"
   version="1.1"
   id="svg1"
   xml:space="preserve"
   xmlns="http://www.w3.org/2000/svg"
   xmlns:svg="http://www.w3.org/2000/svg"><defs
     id="defs1"><linearGradient
       id="swatch21"><stop
         style="stop-color:#ffffff;stop-opacity:1;"
         offset="0"
         id="stop21" /></linearGradient><linearGradient
       id="swatch20"><stop
         style="stop-color:#ffffff;stop-opacity:1;"
         offset="0"
         id="stop20" /></linearGradient><linearGradient
       id="swatch16"><stop
         style="stop-color:#7187de;stop-opacity:1;"
         offset="0"
         id="stop16" /></linearGradient><linearGradient
       id="swatch72"><stop
         style="stop-color:#ffffff;stop-opacity:1;"
         offset="0"
         id="stop72" /></linearGradient><linearGradient
       id="swatch70"><stop
         style="stop-color:#ffffff;stop-opacity:1;"
         offset="0"
         id="stop70" /></linearGradient><linearGradient
       id="swatch68"><stop
         style="stop-color:#ffffff;stop-opacity:1;"
         offset="0"
         id="stop68" /></linearGradient><linearGradient
       id="swatch37"><stop
         style="stop-color:#ffffff;stop-opacity:1;"
         offset="0"
         id="stop37" /></linearGradient><linearGradient
       id="swatch31"><stop
         style="stop-color:#ffffff;stop-opacity:1;"
         offset="0"
         id="stop31" /></linearGradient><linearGradient
       id="swatch17"><stop
         style="stop-color:#26394f;stop-opacity:1;"
         offset="0"
         id="stop17" /></linearGradient></defs><g
     id="layer1"
     transform="translate(457.19996,-676.38041)"><g
       id="use104"
       transform="matrix(0.45661232,0,0,0.45661232,-331.22681,485.74296)"
       style="fill:#ffffff;fill-opacity:1;stroke:#ffffff;stroke-width:0;stroke-dasharray:none;stroke-opacity:1"><g
         id="g45"
         style="stroke-width:0;stroke-dasharray:none"
         transform="translate(-238.35097,193.0755)"><path
           style="font-size:96px;font-family:Nasalization;-inkscape-font-specification:Nasalization;white-space:pre;stroke-linecap:round;stroke-linejoin:round;paint-order:markers stroke fill"
           d="m 132.68,735.1969 v 11.328 h 33.696 c 6.144,0 8.928,3.936 8.928,8.64 0,4.512 -2.592,8.928 -9.024,8.928 h -23.328 c -7.104,0 -10.176,2.976 -10.176,10.272 v 25.632 h 11.328 v -23.424 c 0,-1.152 0.576,-1.632 1.632,-1.632 h 20.16 c 15.168,0 20.832,-10.56 20.832,-20.352 0,-10.368 -6.24,-19.392 -20.832,-19.392 z m 64.89608,0 v 44.16 c 0,13.632 7.104,20.64 20.928,20.64 h 13.632 c 13.824,0 21.024,-7.008 21.024,-20.64 v -44.16 h -11.136 v 43.296 c 0,6.432 -3.36,10.176 -10.656,10.176 h -11.52 c -7.488,0 -10.752,-3.744 -10.752,-10.176 v -43.296 z m 70.08004,0 v 42.432 c 0,12.96 6.72,22.368 23.904,22.368 h 25.824 v -11.328 h -25.152 c -10.176,0 -13.248,-4.896 -13.248,-11.136 v -42.336 z m 77.56797,0 c -14.4,0 -20.16,7.872 -20.16,18.624 0,9.024 4.032,18.72 21.312,18.72 h 15.072 c 7.968,0 10.176,3.84 10.176,8.064 0,4.704 -2.784,8.064 -8.928,8.064 h -36.48 v 11.328 h 36.096 c 14.784,0 20.64,-8.064 20.64,-19.008 0,-9.312 -4.128,-19.104 -21.792,-19.104 h -15.168 c -7.584,0 -9.6,-3.744 -9.6,-7.68 0,-4.512 2.592,-7.68 8.448,-7.68 h 33.216 v -11.328 z m 77.27992,12.672 c 0.672,-1.536 1.728,-2.208 3.264,-2.208 1.536,0 2.592,0.672 3.168,2.208 l 19.68,52.128 h 12.576 l -21.888,-57.6 c -2.304,-6.048 -6.72,-8.352 -13.44,-8.352 -6.816,0 -11.232,2.304 -13.632,8.352 l -22.752,57.6 h 12.48 z m 48.09603,-12.672 v 11.328 h 35.52 c 6.24,0 9.024,3.936 9.024,8.544 0,4.608 -2.592,9.024 -9.024,9.024 h -25.248 c -7.104,0 -10.176,2.976 -10.176,10.272 v 25.632 h 11.328 v -23.424 c 0,-1.152 0.576,-1.632 1.632,-1.632 h 16.896 l 14.784,25.056 h 12.576 l -15.072,-25.92 c 9.888,-2.784 13.728,-11.424 13.728,-19.488 0,-10.368 -6.24,-19.392 -20.832,-19.392 z"
           id="path45"
           transform="matrix(0.44540842,0,0,0.44540842,-40.892554,-88.236629)"
           aria-label="PULSAR" /></g><g
         id="g66"
         transform="matrix(0.77696403,0,0,0.77696403,-334.65453,361.83028)"><circle
           style="fill-opacity:1;stroke:none;stroke-width:1.79996;stroke-linejoin:round;stroke-dasharray:none;paint-order:markers stroke fill"
           id="circle45"
           cx="107.51353"
           cy="108.94479"
           r="3" /><circle
           style="fill:none;fill-opacity:1;stroke-width:3;stroke-linejoin:round;stroke-dasharray:none;stroke-opacity:1;paint-order:normal"
           id="circle46"
           cx="107.51353"
           cy="108.94479"
           r="9.0345211" /><g
           id="g49"
           style="fill-opacity:1;stroke-opacity:1"><path
             id="path46"
             style="fill:none;fill-opacity:1;stroke-width:2.64583;stroke-linecap:round;stroke-linejoin:round;stroke-dasharray:none;stroke-opacity:1"
             d="m 113.37832,93.522272 a 16.5,16.5 0 0 1 9.5579,9.558178" /><path
             id="path47"
             style="fill:none;fill-opacity:1;stroke-width:2.64583;stroke-linecap:round;stroke-linejoin:round;stroke-dasharray:none;stroke-opacity:1"
             d="m 92.090834,103.08045 a 16.5,16.5 0 0 1 9.558146,-9.558273" /><path
             id="path48"
             style="fill:none;fill-opacity:1;stroke-width:2.64583;stroke-linecap:round;stroke-linejoin:round;stroke-dasharray:none;stroke-opacity:1"
             d="m 101.64898,124.36741 a 16.5,16.5 0 0 1 -9.557975,-9.55783" /><path
             id="path49"
             style="fill:none;fill-opacity:1;stroke-width:2.64583;stroke-linecap:round;stroke-linejoin:round;stroke-dasharray:none;stroke-opacity:1"
             d="m 122.93605,114.80958 a 16.5,16.5 0 0 1 -9.55773,9.55773" /></g><g
           id="g53"
           style="fill-opacity:1;stroke-opacity:1"><path
             id="path50"
             style="fill:none;fill-opacity:1;stroke-width:2.38125;stroke-linecap:round;stroke-linejoin:round;stroke-dasharray:none;stroke-opacity:1"
             d="m 113.36688,88.256916 a 21.5,21.5 0 0 1 14.83454,14.834564" /><path
             id="path51"
             style="fill:none;fill-opacity:1;stroke-width:2.38125;stroke-linecap:round;stroke-linejoin:round;stroke-dasharray:none;stroke-opacity:1"
             d="M 86.825641,103.09147 A 21.5,21.5 0 0 1 101.66022,88.256905" /><path
             id="path52"
             style="fill:none;fill-opacity:1;stroke-width:2.38125;stroke-linecap:round;stroke-linejoin:round;stroke-dasharray:none;stroke-opacity:1"
             d="M 101.66021,129.63268 A 21.5,21.5 0 0 1 86.825649,114.79814" /><path
             id="path53"
             style="fill:none;fill-opacity:1;stroke-width:2.38125;stroke-linecap:round;stroke-linejoin:round;stroke-dasharray:none;stroke-opacity:1"
             d="m 128.20141,114.79814 a 21.5,21.5 0 0 1 -14.83453,14.83453" /></g><g
           id="g57"
           style="fill-opacity:1;stroke-width:1.5875;stroke-dasharray:none;stroke-opacity:1"><path
             id="path54"
             style="fill:none;fill-opacity:1;stroke-width:2.11667;stroke-linecap:round;stroke-linejoin:round;stroke-dasharray:none;stroke-opacity:1"
             d="m 113.37792,83.101828 a 26.499998,26.499998 0 0 1 19.97861,19.978732" /><path
             id="path55"
             style="fill:none;fill-opacity:1;stroke-width:2.11667;stroke-linecap:round;stroke-linejoin:round;stroke-dasharray:none;stroke-opacity:1"
             d="M 81.670527,103.08056 A 26.499998,26.499998 0 0 1 101.64936,83.101779" /><path
             id="path56"
             style="fill:none;fill-opacity:1;stroke-width:2.11667;stroke-linecap:round;stroke-linejoin:round;stroke-dasharray:none;stroke-opacity:1"
             d="M 101.64936,134.78781 A 26.499998,26.499998 0 0 1 81.670638,114.80952" /><path
             id="path57"
             style="fill:none;fill-opacity:1;stroke-width:2.11667;stroke-linecap:round;stroke-linejoin:round;stroke-dasharray:none;stroke-opacity:1"
             d="m 133.35927,114.79696 a 26.499998,26.499998 0 0 1 -19.99412,19.99369" /></g><g
           id="g61"
           style="fill-opacity:1;stroke-width:1.05833;stroke-dasharray:none;stroke-opacity:1"><path
             id="path58"
             style="fill:none;fill-opacity:1;stroke-width:1.85208;stroke-linecap:round;stroke-linejoin:round;stroke-dasharray:none;stroke-opacity:1"
             d="m 113.37777,77.995469 a 31.5,31.5 0 0 1 25.08515,25.085421" /><path
             id="path59"
             style="fill:none;fill-opacity:1;stroke-width:1.85208;stroke-linecap:round;stroke-linejoin:round;stroke-dasharray:none;stroke-opacity:1"
             d="M 76.564124,103.08097 A 31.5,31.5 0 0 1 101.64963,77.995404" /><path
             id="path60"
             style="fill:none;fill-opacity:1;stroke-width:1.85208;stroke-linecap:round;stroke-linejoin:round;stroke-dasharray:none;stroke-opacity:1"
             d="M 101.64963,139.89418 A 31.5,31.5 0 0 1 76.564218,114.80911" /><path
             id="path61"
             style="fill:none;fill-opacity:1;stroke-width:1.85208;stroke-linecap:round;stroke-linejoin:round;stroke-dasharray:none;stroke-opacity:1"
             d="m 138.46283,114.80918 a 31.5,31.5 0 0 1 -25.08506,25.08493" /></g><g
           id="g65"
           style="display:inline;fill-opacity:1;stroke-opacity:1"><path
             style="fill:none;fill-opacity:1;stroke-width:3;stroke-linecap:round;stroke-linejoin:round;stroke-dasharray:none;stroke-opacity:1;paint-order:markers stroke fill"
             d="m 107.51353,124.36731 1e-5,14.0268"
             id="path62" /><path
             style="fill:none;fill-opacity:1;stroke-width:3;stroke-linecap:round;stroke-linejoin:round;stroke-dasharray:none;stroke-opacity:1;paint-order:markers stroke fill"
             d="m 136.96285,108.94478 -14.0268,1e-5"
             id="path63" /><path
             style="fill:none;fill-opacity:1;stroke-width:3;stroke-linecap:round;stroke-linejoin:round;stroke-dasharray:none;stroke-opacity:1;paint-order:markers stroke fill"
             d="m 107.51353,79.49546 1e-5,14.026809"
             id="path64" /><path
             style="fill:none;fill-opacity:1;stroke-width:3;stroke-linecap:round;stroke-linejoin:round;stroke-dasharray:none;stroke-opacity:1;paint-order:markers stroke fill"
             d="m 92.091003,108.94479 -14.026787,1e-5"
             id="path65" /></g></g></g></g></svg>
